<?xml version="1.0" ?><svg id="Layer_1" style="enable-background:new 0 0 49 49;" version="1.1" viewBox="0 0 49 49" xml:space="preserve" xmlns="http://www.w3.org/2000/svg" xmlns:xlink="http://www.w3.org/1999/xlink"><style type="text/css">
	.st0{fill:#E6E6E6;}
	.st1{fill:#88C057;}
	.st2{fill:#FFCC66;}
	.st3{fill:#666666;}
	.st4{fill:#92D3FF;}
	.st5{fill:#515151;}
	.st6{fill:#E7B95D;}
	.st7{fill:#ED7B72;}
	.st8{fill:#FFFFFF;}
	.st9{fill:#CCCCCC;}
	.st10{fill:#B3B3B3;}
	.st11{fill:#638B3F;}
	.st12{fill:#EC7B72;}
	.st13{fill:#9A7BAA;}
	.st14{fill:#ED7161;}
	.st15{fill:#D56455;}
	.st16{opacity:0.25;fill:#92D3FF;}
	.st17{fill:#98D862;}
	.st18{fill:#3AB7FC;}
	.st19{fill:#666766;}
	.st20{fill:#98D0F1;}
	.st21{fill:#1FADFC;}
	.st22{fill:#FF8833;}
	.st23{fill:#F9C262;}
	.st24{fill:#BF8E5F;}
	.st25{fill:#A2E667;}
	.st26{fill:#54BBFF;}
</style><g id="XMLID_1234_"><path class="st4" d="M29.9,37.2c-0.9,1.6-2.3,5.5-2.9,8h-5c-0.6-2.5-2.1-6.4-2.9-8c-0.4-0.7-0.3-1.6,0.1-2.3   c3.4-6.2,3.7-20.8,3.7-27.4c0-2.3,0.4-4.5,1.3-6.6l0.1-0.3c0.1-0.2,0.3-0.2,0.4,0l0.1,0.3c0.9,2.1,1.3,4.3,1.3,6.6   c0,6.6,0.3,21.2,3.7,27.4C30.2,35.7,30.3,36.5,29.9,37.2z" id="XMLID_1235_"/><path class="st7" d="M33.5,45.3H15.5c-0.9,0-1.6,0.7-1.6,1.6v0c0,0.9,0.7,1.6,1.6,1.6h18.1c0.9,0,1.6-0.7,1.6-1.6   v0C35.2,46,34.4,45.3,33.5,45.3z" id="XMLID_4406_"/><path class="st3" d="M48.2,25.5h-1.1l-6.8-12.1v12.1h-1V13.4l-6.8,12.1h-1c0,0-0.1,0-0.1,0c0,0,0,0,0-0.1l8-14.2   c0,0,0,0,0,0c0.1-0.1,0.2-0.2,0.4-0.2c0.2,0,0.3,0.1,0.4,0.2c0,0,0,0,0,0L48.2,25.5C48.2,25.4,48.2,25.5,48.2,25.5z" id="XMLID_1236_"/><path class="st0" d="M48.2,25.5H31.4c-0.2,0-0.3,0.2-0.3,0.3c0.3,4.6,4.1,8.2,8.7,8.2s8.4-3.6,8.7-8.2   C48.5,25.6,48.4,25.5,48.2,25.5z" id="XMLID_1237_"/><path class="st3" d="M17.7,25.5C17.7,25.5,17.7,25.5,17.7,25.5l-1.2,0L9.8,13.4v12.1h-1V13.4L2,25.5H0.9   c0,0,0,0,0,0c0,0,0-0.1,0-0.1l8-14.2c0,0,0,0,0,0c0.2-0.3,0.6-0.3,0.8,0c0,0,0,0,0,0L17.7,25.5C17.7,25.4,17.7,25.5,17.7,25.5z" id="XMLID_1238_"/><path class="st0" d="M17.6,25.5H0.8c-0.2,0-0.3,0.2-0.3,0.3C0.8,30.4,4.6,34,9.2,34s8.4-3.6,8.7-8.2   C17.9,25.6,17.8,25.5,17.6,25.5z" id="XMLID_1239_"/><path class="st12" d="M44.3,8.8c0-0.5-0.4-0.9-0.9-0.9c-0.5,0-0.9,0.4-0.9,0.9c0,0.4,0.2,0.7,0.6,0.8   c-1,1.5-2.8,1.4-4.6,1c-3.2-1-4.9-3.3-12.4-4.2c-0.4,0-0.7-0.1-1-0.1h-1.1C15,6.6,8.8,13.9,5.9,9.6c0.3-0.1,0.6-0.4,0.6-0.8   c0-0.5-0.4-0.9-0.9-0.9c-0.5,0-0.9,0.4-0.9,0.9c0,0,0,0,0,0h0c-0.1-1-0.3,4.3,6.1,3.2c3.4-0.7,6.5-3.4,13.2-3H25   c6.6-0.4,10,2.3,13.2,3C44.8,13,44.4,7.5,44.3,8.8L44.3,8.8C44.3,8.8,44.3,8.8,44.3,8.8z" id="XMLID_1240_"/><g id="XMLID_1241_"><circle class="st2" cx="24.5" cy="7.4" id="XMLID_1242_" r="3.3"/><circle class="st8" cx="24.5" cy="7.4" id="XMLID_1243_" r="2"/></g></g></svg>